<svg xmlns="http://www.w3.org/2000/svg" xmlns:xlink="http://www.w3.org/1999/xlink" width="500" zoomAndPan="magnify" viewBox="0 0 375 374.999991" height="500" preserveAspectRatio="xMidYMid meet" version="1.0"><defs><g></g><clipPath id="0cff07c352"><path d="M 94.15625 94.15625 L 280.90625 94.15625 L 280.90625 157.90625 L 94.15625 157.90625 Z M 94.15625 94.15625 " clip-rule="nonzero"></path></clipPath><clipPath id="a6c2c9826c"><path d="M 94.15625 208.757812 L 280.90625 208.757812 L 280.90625 280.757812 L 94.15625 280.757812 Z M 94.15625 208.757812 " clip-rule="nonzero"></path></clipPath><clipPath id="5d3c43c523"><path d="M 180 216 L 195 216 L 195 231 L 180 231 Z M 180 216 " clip-rule="nonzero"></path></clipPath><clipPath id="3ae860992a"><path d="M 187.496094 216.839844 L 194.390625 223.734375 L 187.496094 230.628906 L 180.601562 223.734375 Z M 187.496094 216.839844 " clip-rule="nonzero"></path></clipPath><clipPath id="f6e2f2eade"><path d="M 187.496094 216.839844 L 194.390625 223.734375 L 187.496094 230.628906 L 180.601562 223.734375 Z M 187.496094 216.839844 " clip-rule="nonzero"></path></clipPath><clipPath id="28271d1d99"><path d="M 187.496094 216.839844 L 194.390625 223.734375 L 187.496094 230.628906 L 180.601562 223.734375 Z M 187.496094 216.839844 " clip-rule="nonzero"></path></clipPath></defs><rect x="-37.5" width="450" fill="#ffffff" y="-37.499999" height="449.999989" fill-opacity="1"></rect><rect x="-37.5" width="450" fill="#ffffff" y="-37.499999" height="449.999989" fill-opacity="1"></rect><rect x="-37.5" width="450" fill="#edece8" y="-37.499999" height="449.999989" fill-opacity="1"></rect><g clip-path="url(#0cff07c352)"><path fill="#292929" d="M 187.53125 280.90625 C 136.042969 280.90625 94.15625 239.015625 94.15625 187.53125 C 94.15625 136.042969 136.042969 94.15625 187.53125 94.15625 C 239.015625 94.15625 280.90625 136.042969 280.90625 187.53125 C 280.90625 239.015625 239.015625 280.90625 187.53125 280.90625 Z M 187.53125 95.808594 C 136.953125 95.808594 95.808594 136.953125 95.808594 187.53125 C 95.808594 238.105469 136.953125 279.25 187.53125 279.25 C 238.105469 279.25 279.25 238.105469 279.25 187.53125 C 279.25 136.953125 238.105469 95.808594 187.53125 95.808594 Z M 187.53125 95.808594 " fill-opacity="1" fill-rule="nonzero"></path></g><g clip-path="url(#a6c2c9826c)"><path fill="#292929" d="M 187.53125 280.90625 C 136.042969 280.90625 94.15625 239.015625 94.15625 187.53125 C 94.15625 136.042969 136.042969 94.15625 187.53125 94.15625 C 239.015625 94.15625 280.90625 136.042969 280.90625 187.53125 C 280.90625 239.015625 239.015625 280.90625 187.53125 280.90625 Z M 187.53125 95.808594 C 136.953125 95.808594 95.808594 136.953125 95.808594 187.53125 C 95.808594 238.105469 136.953125 279.25 187.53125 279.25 C 238.105469 279.25 279.25 238.105469 279.25 187.53125 C 279.25 136.953125 238.105469 95.808594 187.53125 95.808594 Z M 187.53125 95.808594 " fill-opacity="1" fill-rule="nonzero"></path></g><g fill="#292929" fill-opacity="1"><g transform="translate(158.410566, 163.101289)"><g><path d="M 8.988281 -19.960938 C 4.816406 -19.960938 1.820312 -17.132812 1.820312 -13.242188 C 1.820312 -9.40625 4.730469 -6.523438 8.59375 -6.523438 C 9.351562 -6.523438 10.105469 -6.636719 10.777344 -6.859375 L 6.160156 0 L 8.929688 0 L 14.445312 -8.148438 C 15.566406 -9.800781 16.183594 -11.535156 16.183594 -13.269531 C 16.183594 -17.132812 13.160156 -19.960938 8.988281 -19.960938 Z M 4.171875 -13.242188 C 4.171875 -15.902344 6.1875 -17.804688 8.988281 -17.804688 C 11.816406 -17.804688 13.804688 -15.902344 13.804688 -13.242188 C 13.804688 -10.582031 11.816406 -8.679688 8.988281 -8.679688 C 6.1875 -8.679688 4.171875 -10.582031 4.171875 -13.242188 Z M 4.171875 -13.242188 "></path></g></g></g><g fill="#292929" fill-opacity="1"><g transform="translate(179.100145, 163.101289)"><g><path d="M 8.484375 0.363281 C 12.515625 0.363281 15.203125 -2.15625 15.203125 -5.878906 C 15.203125 -9.574219 12.515625 -12.09375 8.511719 -12.09375 L 4.925781 -12.09375 L 5.347656 -17.300781 L 14.308594 -17.300781 L 14.308594 -19.597656 L 3.109375 -19.597656 L 2.351562 -9.828125 L 8.511719 -9.828125 C 11.058594 -9.828125 12.738281 -8.316406 12.738281 -5.933594 C 12.738281 -3.582031 11.085938 -2.015625 8.511719 -2.015625 C 6.074219 -2.015625 4.394531 -3.414062 4.253906 -5.65625 L 1.847656 -5.65625 C 2.015625 -1.988281 4.621094 0.363281 8.484375 0.363281 Z M 8.484375 0.363281 "></path></g></g></g><g fill="#292929" fill-opacity="1"><g transform="translate(198.72587, 163.101289)"><g><path d="M 8.875 0.363281 C 13.046875 0.363281 16.042969 -2.464844 16.042969 -6.355469 C 16.042969 -10.191406 13.128906 -13.074219 9.265625 -13.074219 C 8.511719 -13.074219 7.753906 -12.960938 7.082031 -12.738281 L 11.703125 -19.597656 L 8.929688 -19.597656 L 3.414062 -11.449219 C 2.296875 -9.800781 1.679688 -8.0625 1.679688 -6.328125 C 1.679688 -2.464844 4.703125 0.363281 8.875 0.363281 Z M 4.058594 -6.355469 C 4.058594 -9.015625 6.046875 -10.917969 8.875 -10.917969 C 11.675781 -10.917969 13.691406 -9.015625 13.691406 -6.355469 C 13.691406 -3.695312 11.675781 -1.792969 8.875 -1.792969 C 6.046875 -1.792969 4.058594 -3.695312 4.058594 -6.355469 Z M 4.058594 -6.355469 "></path></g></g></g><g fill="#292929" fill-opacity="1"><g transform="translate(71.914478, 196.101287)"><g><path d="M 6.886719 0 L 9.183594 0 L 15.0625 -15.875 L 18.308594 -7.140625 L 20.96875 0 L 23.265625 0 L 29.648438 -19.597656 L 27.074219 -19.597656 L 22.035156 -3.917969 L 16.238281 -19.597656 L 13.914062 -19.597656 L 8.121094 -3.949219 L 5.824219 -11.144531 L 3.109375 -19.597656 L 0.53125 -19.597656 Z M 6.886719 0 "></path></g></g></g><g fill="#292929" fill-opacity="1"><g transform="translate(104.922387, 196.101287)"><g><path d="M 11.757812 0.363281 C 17.722656 0.363281 21.921875 -3.835938 21.921875 -9.800781 C 21.921875 -15.761719 17.722656 -19.960938 11.757812 -19.960938 C 5.796875 -19.960938 1.625 -15.761719 1.625 -9.800781 C 1.625 -3.835938 5.796875 0.363281 11.757812 0.363281 Z M 4.144531 -9.800781 C 4.144531 -14.363281 7.25 -17.5 11.757812 -17.5 C 16.265625 -17.5 19.375 -14.363281 19.375 -9.800781 C 19.375 -5.234375 16.265625 -2.101562 11.757812 -2.101562 C 7.25 -2.101562 4.144531 -5.234375 4.144531 -9.800781 Z M 4.144531 -9.800781 "></path></g></g></g><g fill="#292929" fill-opacity="1"><g transform="translate(131.267202, 196.101287)"><g><path d="M 11.757812 0.363281 C 17.722656 0.363281 21.921875 -3.835938 21.921875 -9.800781 C 21.921875 -15.761719 17.722656 -19.960938 11.757812 -19.960938 C 5.796875 -19.960938 1.625 -15.761719 1.625 -9.800781 C 1.625 -3.835938 5.796875 0.363281 11.757812 0.363281 Z M 4.144531 -9.800781 C 4.144531 -14.363281 7.25 -17.5 11.757812 -17.5 C 16.265625 -17.5 19.375 -14.363281 19.375 -9.800781 C 19.375 -5.234375 16.265625 -2.101562 11.757812 -2.101562 C 7.25 -2.101562 4.144531 -5.234375 4.144531 -9.800781 Z M 4.144531 -9.800781 "></path></g></g></g><g fill="#292929" fill-opacity="1"><g transform="translate(157.612021, 196.101287)"><g><path d="M 2.855469 0 L 9.632812 0 C 15.652344 0 19.683594 -4.003906 19.683594 -9.800781 C 19.683594 -15.59375 15.652344 -19.597656 9.632812 -19.597656 L 2.855469 -19.597656 Z M 5.320312 -2.351562 L 5.320312 -17.246094 L 9.519531 -17.246094 C 14.082031 -17.246094 17.164062 -14.25 17.164062 -9.800781 C 17.164062 -5.347656 14.109375 -2.351562 9.632812 -2.351562 Z M 5.320312 -2.351562 "></path></g></g></g><g fill="#292929" fill-opacity="1"><g transform="translate(181.745137, 196.101287)"><g><path d="M 6.886719 0 L 9.183594 0 L 15.0625 -15.875 L 18.308594 -7.140625 L 20.96875 0 L 23.265625 0 L 29.648438 -19.597656 L 27.074219 -19.597656 L 22.035156 -3.917969 L 16.238281 -19.597656 L 13.914062 -19.597656 L 8.121094 -3.949219 L 5.824219 -11.144531 L 3.109375 -19.597656 L 0.53125 -19.597656 Z M 6.886719 0 "></path></g></g></g><g fill="#292929" fill-opacity="1"><g transform="translate(214.753042, 196.101287)"><g><path d="M 11.757812 0.363281 C 17.722656 0.363281 21.921875 -3.835938 21.921875 -9.800781 C 21.921875 -15.761719 17.722656 -19.960938 11.757812 -19.960938 C 5.796875 -19.960938 1.625 -15.761719 1.625 -9.800781 C 1.625 -3.835938 5.796875 0.363281 11.757812 0.363281 Z M 4.144531 -9.800781 C 4.144531 -14.363281 7.25 -17.5 11.757812 -17.5 C 16.265625 -17.5 19.375 -14.363281 19.375 -9.800781 C 19.375 -5.234375 16.265625 -2.101562 11.757812 -2.101562 C 7.25 -2.101562 4.144531 -5.234375 4.144531 -9.800781 Z M 4.144531 -9.800781 "></path></g></g></g><g fill="#292929" fill-opacity="1"><g transform="translate(241.097855, 196.101287)"><g><path d="M 2.855469 0 L 5.320312 0 L 5.320312 -7.027344 L 9.632812 -7.027344 L 14.417969 0 L 17.386719 0 L 12.457031 -7.28125 C 15.316406 -7.980469 17.078125 -10.136719 17.078125 -13.296875 C 17.078125 -17.191406 14.390625 -19.597656 10.332031 -19.597656 L 2.855469 -19.597656 Z M 5.320312 -9.378906 L 5.320312 -17.246094 L 10.050781 -17.246094 C 12.90625 -17.246094 14.558594 -15.789062 14.558594 -13.296875 C 14.558594 -10.808594 12.90625 -9.378906 10.050781 -9.378906 Z M 5.320312 -9.378906 "></path></g></g></g><g fill="#292929" fill-opacity="1"><g transform="translate(262.991271, 196.101287)"><g><path d="M 2.855469 0 L 5.320312 0 L 5.320312 -8.820312 L 8.121094 -8.820312 C 8.875 -8.820312 9.546875 -8.875 10.164062 -8.988281 L 15.230469 0 L 18.085938 0 L 12.457031 -9.882812 C 13.578125 -10.609375 14.363281 -11.730469 14.921875 -13.214844 L 17.332031 -19.597656 L 14.726562 -19.597656 L 12.710938 -14.195312 C 11.925781 -12.066406 10.777344 -11.171875 8.121094 -11.171875 L 5.320312 -11.171875 L 5.320312 -19.597656 L 2.855469 -19.597656 Z M 2.855469 0 "></path></g></g></g><g fill="#292929" fill-opacity="1"><g transform="translate(284.968687, 196.101287)"><g><path d="M 9.378906 0.363281 C 13.664062 0.363281 16.433594 -1.734375 16.433594 -5.152344 C 16.433594 -8.035156 14.503906 -9.769531 9.492188 -11.003906 C 5.683594 -11.925781 4.421875 -12.933594 4.421875 -14.558594 C 4.421875 -16.433594 6.101562 -17.609375 8.902344 -17.609375 C 11.785156 -17.609375 13.578125 -16.15625 13.636719 -13.804688 L 16.070312 -13.804688 C 16.042969 -17.609375 13.296875 -19.960938 8.902344 -19.960938 C 4.621094 -19.960938 1.902344 -17.863281 1.902344 -14.558594 C 1.902344 -11.535156 4.058594 -9.855469 8.875 -8.707031 C 12.402344 -7.867188 13.886719 -6.886719 13.886719 -5.066406 C 13.886719 -3.136719 12.152344 -1.988281 9.378906 -1.988281 C 6.328125 -1.988281 4.199219 -3.5 4.144531 -6.019531 L 1.679688 -6.019531 C 1.707031 -2.183594 4.703125 0.363281 9.378906 0.363281 Z M 9.378906 0.363281 "></path></g></g></g><g fill="#292929" fill-opacity="1"><g transform="translate(121.748448, 158.933085)"><g><path d="M 3.851562 -7.207031 L 4.253906 -7.960938 L -4.386719 -12.578125 L -4.789062 -11.824219 L -0.910156 -9.753906 L -3.617188 -4.695312 L -7.492188 -6.765625 L -7.894531 -6.011719 L 0.746094 -1.394531 L 1.148438 -2.148438 L -2.902344 -4.3125 L -0.195312 -9.371094 Z M 3.851562 -7.207031 "></path></g></g></g><g fill="#292929" fill-opacity="1"><g transform="translate(130.018028, 144.907894)"><g><path d="M 0.199219 -0.234375 L 0.796875 -0.921875 L -0.414062 -3.292969 L 2.914062 -7.152344 L 5.445312 -6.316406 L 6.03125 -6.996094 L -4.039062 -10.320312 L -4.566406 -9.703125 Z M -0.785156 -4.058594 L -3.421875 -9.253906 L 2.109375 -7.417969 Z M -0.785156 -4.058594 "></path></g></g></g><g fill="#292929" fill-opacity="1"><g transform="translate(140.388267, 133.744742)"><g><path d="M 1.269531 -0.941406 L 1.945312 -1.441406 L -3.019531 -8.144531 L 6.734375 -4.988281 L 7.378906 -5.464844 L 1.546875 -13.335938 L 0.871094 -12.835938 L 5.828125 -6.144531 L -3.917969 -9.289062 L -4.558594 -8.8125 Z M 1.269531 -0.941406 "></path></g></g></g><g fill="#292929" fill-opacity="1"><g transform="translate(153.953457, 124.50768)"><g><path d="M 1.453125 -0.628906 L 4.289062 -1.855469 C 7.152344 -3.097656 8.191406 -5.664062 7.019531 -8.375 C 5.847656 -11.085938 3.261719 -12.085938 0.398438 -10.847656 L -2.441406 -9.617188 Z M 1.914062 -1.710938 L -1.332031 -9.210938 L 0.695312 -10.089844 C 3.097656 -11.128906 5.234375 -10.316406 6.222656 -8.03125 C 7.210938 -5.746094 6.355469 -3.636719 3.96875 -2.601562 Z M 1.914062 -1.710938 "></path></g></g></g><g fill="#292929" fill-opacity="1"><g transform="translate(169.14658, 118.599449)"><g><path d="M 5.804688 -0.839844 C 8.082031 -1.238281 9.707031 -2.902344 9.933594 -5.089844 L 9.050781 -4.933594 C 8.792969 -3.242188 7.476562 -2 5.671875 -1.679688 C 3.316406 -1.265625 1.320312 -2.664062 0.886719 -5.128906 C 0.453125 -7.597656 1.847656 -9.589844 4.207031 -10.007812 C 5.96875 -10.316406 7.566406 -9.632812 8.390625 -8.199219 L 9.269531 -8.355469 C 8.28125 -10.269531 6.25 -11.234375 4.042969 -10.84375 C 1.203125 -10.34375 -0.484375 -7.914062 0.03125 -4.980469 C 0.550781 -2.042969 2.96875 -0.339844 5.804688 -0.839844 Z M 5.804688 -0.839844 "></path></g></g></g><g fill="#292929" fill-opacity="1"><g transform="translate(186.152269, 116.365251)"><g><path d="M 1.578125 0.0820312 L 2.433594 0.128906 L 2.625 -3.546875 L 5.152344 -3.414062 L 7.589844 0.398438 L 8.609375 0.449219 L 6.148438 -3.433594 C 7.703125 -3.617188 8.722656 -4.671875 8.808594 -6.292969 C 8.90625 -8.152344 7.683594 -9.40625 5.710938 -9.511719 L 2.089844 -9.699219 Z M 2.667969 -4.359375 L 2.902344 -8.84375 L 5.585938 -8.703125 C 7.136719 -8.625 8.015625 -7.722656 7.941406 -6.339844 C 7.867188 -4.941406 6.902344 -4.136719 5.351562 -4.21875 Z M 2.667969 -4.359375 "></path></g></g></g><g fill="#292929" fill-opacity="1"><g transform="translate(201.359358, 117.773285)"><g><path d="M 0.296875 0.0820312 L 1.175781 0.320312 L 2.792969 -1.792969 L 7.710938 -0.453125 L 8.046875 2.195312 L 8.910156 2.429688 L 7.574219 -8.089844 L 6.789062 -8.304688 Z M 3.324219 -2.457031 L 6.875 -7.074219 L 7.605469 -1.292969 Z M 3.324219 -2.457031 "></path></g></g></g><g fill="#292929" fill-opacity="1"><g transform="translate(215.922579, 122.434898)"><g><path d="M 1.410156 0.714844 L 2.171875 1.097656 L 4.144531 -2.796875 L 7.878906 -0.90625 L 8.230469 -1.605469 L 4.496094 -3.496094 L 6.234375 -6.929688 L 10.292969 -4.878906 L 10.652344 -5.589844 L 5.832031 -8.027344 Z M 1.410156 0.714844 "></path></g></g></g><g fill="#292929" fill-opacity="1"><g transform="translate(227.811613, 129.035783)"><g><path d="M 3.074219 2.40625 L 3.734375 2.925781 L 9.277344 -4.144531 L 11.941406 -2.058594 L 12.441406 -2.695312 L 6.460938 -7.382812 L 5.960938 -6.746094 L 8.613281 -4.664062 Z M 3.074219 2.40625 "></path></g></g></g><g fill="#292929" fill-opacity="1"><g transform="translate(238.781955, 138.372795)"><g><path d="M 1.023438 1.203125 L 4.863281 5.710938 L 5.46875 5.195312 L 2.1875 1.335938 L 5.085938 -1.132812 L 8.03125 2.332031 L 8.628906 1.824219 L 5.679688 -1.640625 L 8.429688 -3.980469 L 11.613281 -0.238281 L 12.222656 -0.757812 L 8.484375 -5.148438 Z M 1.023438 1.203125 "></path></g></g></g><g fill="#292929" fill-opacity="1"><g transform="translate(247.621902, 149.526162)"><g><path d="M 0.746094 1.394531 L 2.203125 4.121094 C 3.675781 6.875 6.324219 7.695312 8.925781 6.304688 C 11.53125 4.910156 12.316406 2.253906 10.84375 -0.5 L 9.382812 -3.226562 Z M 1.863281 1.765625 L 9.070312 -2.089844 L 10.113281 -0.140625 C 11.347656 2.167969 10.714844 4.363281 8.515625 5.539062 C 6.320312 6.714844 4.148438 6.035156 2.921875 3.738281 Z M 1.863281 1.765625 "></path></g></g></g><g fill="#292929" fill-opacity="1"><g transform="translate(127.107759, 238.925979)"><g><path d="M 1.101562 1.136719 L 5.222656 5.386719 L 5.796875 4.828125 L 2.269531 1.191406 L 5 -1.457031 L 8.167969 1.808594 L 8.730469 1.261719 L 5.5625 -2.003906 L 8.15625 -4.515625 L 11.574219 -0.992188 L 12.148438 -1.546875 L 8.132812 -5.683594 Z M 1.101562 1.136719 "></path></g></g></g><g fill="#292929" fill-opacity="1"><g transform="translate(138.67492, 249.834186)"><g><path d="M 3.804688 2.816406 C 5.5625 4.015625 7.253906 3.917969 8.179688 2.566406 C 8.96875 1.410156 8.671875 0.15625 6.949219 -1.714844 C 5.507812 -3.253906 5.246094 -4.160156 5.800781 -4.972656 C 6.40625 -5.859375 7.570312 -5.929688 8.878906 -5.039062 C 10.230469 -4.117188 10.609375 -2.90625 9.886719 -1.722656 L 10.578125 -1.25 C 11.585938 -2.851562 11.117188 -4.492188 9.335938 -5.707031 C 7.613281 -6.882812 5.976562 -6.746094 5.09375 -5.453125 C 4.265625 -4.238281 4.652344 -2.992188 6.324219 -1.171875 C 7.710938 0.296875 8.03125 1.246094 7.453125 2.089844 C 6.8125 3.023438 5.589844 3.054688 4.261719 2.148438 C 2.863281 1.191406 2.402344 -0.140625 3.144531 -1.378906 L 2.449219 -1.851562 C 1.441406 -0.253906 1.953125 1.554688 3.804688 2.816406 Z M 3.804688 2.816406 "></path></g></g></g><g fill="#292929" fill-opacity="1"><g transform="translate(152.782475, 258.524851)"><g><path d="M 3.601562 1.507812 L 4.375 1.832031 L 7.84375 -6.457031 L 10.96875 -5.148438 L 11.28125 -5.898438 L 4.273438 -8.832031 L 3.957031 -8.082031 L 7.070312 -6.78125 Z M 3.601562 1.507812 "></path></g></g></g><g fill="#292929" fill-opacity="1"><g transform="translate(167.869298, 264.099249)"><g><path d="M 1.554688 0.289062 L 4.59375 0.855469 C 7.664062 1.425781 9.960938 -0.125 10.5 -3.027344 C 11.039062 -5.929688 9.457031 -8.203125 6.386719 -8.777344 L 3.347656 -9.339844 Z M 2.542969 -0.351562 L 4.039062 -8.386719 L 6.210938 -7.984375 C 8.785156 -7.503906 10.101562 -5.636719 9.648438 -3.1875 C 9.191406 -0.738281 7.304688 0.535156 4.742188 0.0585938 Z M 2.542969 -0.351562 "></path></g></g></g><g fill="#292929" fill-opacity="1"><g transform="translate(185.658678, 266.425944)"><g></g></g></g><g fill="#292929" fill-opacity="1"><g transform="translate(196.672539, 266.075039)"><g><path d="M 1.117188 -0.1875 L 7.757812 -1.300781 L 7.625 -2.085938 L 2.339844 -1.199219 L 5.121094 -4.761719 C 6.136719 -6.066406 6.519531 -7.167969 6.335938 -8.242188 C 6.058594 -9.914062 4.574219 -10.882812 2.765625 -10.582031 C 0.929688 -10.273438 -0.128906 -8.820312 0.125 -6.945312 L 0.914062 -7.078125 C 0.726562 -8.535156 1.527344 -9.605469 2.90625 -9.839844 C 4.246094 -10.0625 5.328125 -9.363281 5.539062 -8.109375 C 5.683594 -7.238281 5.339844 -6.402344 4.476562 -5.292969 L 1.011719 -0.824219 Z M 1.117188 -0.1875 "></path></g></g></g><g fill="#292929" fill-opacity="1"><g transform="translate(212.765561, 262.630591)"><g><path d="M 4.613281 -1.621094 C 6.8125 -2.484375 7.46875 -4.835938 6.320312 -7.75 C 5.171875 -10.667969 3.089844 -11.941406 0.890625 -11.074219 C -1.308594 -10.207031 -1.976562 -7.855469 -0.832031 -4.9375 C 0.316406 -2.019531 2.410156 -0.753906 4.613281 -1.621094 Z M -0.0351562 -5.25 C -1.003906 -7.710938 -0.539062 -9.625 1.191406 -10.304688 C 2.925781 -10.988281 4.570312 -9.90625 5.539062 -7.445312 C 6.5 -4.996094 6.042969 -3.070312 4.308594 -2.386719 C 2.578125 -1.707031 0.929688 -2.800781 -0.0351562 -5.25 Z M -0.0351562 -5.25 "></path></g></g></g><g fill="#292929" fill-opacity="1"><g transform="translate(228.411548, 255.601821)"><g><path d="M 0.945312 -0.625 L 6.5625 -4.335938 L 6.121094 -5 L 1.652344 -2.046875 L 2.746094 -6.429688 C 3.148438 -8.035156 3.050781 -9.195312 2.449219 -10.105469 C 1.515625 -11.519531 -0.234375 -11.804688 -1.765625 -10.792969 C -3.316406 -9.769531 -3.695312 -8.007812 -2.703125 -6.398438 L -2.035156 -6.839844 C -2.800781 -8.097656 -2.503906 -9.398438 -1.335938 -10.171875 C -0.203125 -10.917969 1.070312 -10.71875 1.769531 -9.65625 C 2.257812 -8.921875 2.285156 -8.015625 1.945312 -6.652344 L 0.589844 -1.160156 Z M 0.945312 -0.625 "></path></g></g></g><g fill="#292929" fill-opacity="1"><g transform="translate(241.723411, 245.925375)"><g><path d="M 3.558594 -3.351562 C 5.21875 -5.035156 4.863281 -7.449219 2.632812 -9.648438 C 0.398438 -11.847656 -2.019531 -12.167969 -3.679688 -10.484375 C -5.339844 -8.796875 -4.996094 -6.375 -2.761719 -4.175781 C -0.527344 -1.976562 1.898438 -1.667969 3.558594 -3.351562 Z M -2.164062 -4.785156 C -4.046875 -6.640625 -4.398438 -8.578125 -3.089844 -9.902344 C -1.785156 -11.230469 0.15625 -10.90625 2.042969 -9.050781 C 3.914062 -7.203125 4.277344 -5.257812 2.96875 -3.929688 C 1.664062 -2.605469 -0.289062 -2.9375 -2.164062 -4.785156 Z M -2.164062 -4.785156 "></path></g></g></g><g clip-path="url(#5d3c43c523)"><g clip-path="url(#3ae860992a)"><g clip-path="url(#f6e2f2eade)"><g clip-path="url(#28271d1d99)"><path fill="#292929" d="M 187.5 230.621094 C 189.410156 227.199219 190.964844 225.644531 194.378906 223.726562 C 190.960938 221.8125 189.40625 220.261719 187.484375 216.847656 L 187.484375 217.445312 L 187.484375 216.847656 C 185.574219 220.265625 184.019531 221.820312 180.605469 223.742188 L 181.476562 223.738281 L 180.605469 223.742188 C 184.023438 225.652344 185.578125 227.203125 187.5 230.621094 L 187.5 229.625 Z M 187.5 230.621094 " fill-opacity="1" fill-rule="nonzero"></path></g></g></g></g></svg>